<?xml version="1.0" encoding="utf-8"?>
<?xml-stylesheet type="text/xsl" href="rss1.xsl"?>
<rss version="2.0" xmlns:atom="http://www.w3.org/2005/Atom" xmlns:content="http://purl.org/rss/1.0/modules/content/" xmlns:dc="http://purl.org/dc/elements/1.1/" xmlns:media="http://search.yahoo.com/mrss/">
<channel>
 <title>Getty</title>
 <link>http://www.gettyimg.com/</link>
 <atom:link href="http://www.gettyimg.com/" rel="self" type="application/rss+xml" />

 
                <item>
                <title><![CDATA[【OTHERS】Leona Lewis - I Got You (Director's Cut) (AAC-WEBDLRip-1080p-X265-CVC)]]></title>
                <link><![CDATA[https://sharemania.us/threads/leona-lewis-i-got-you-directors-cut-aac-webdlrip-1080p-x265-cvc.224208/]]></link>
                <description><![CDATA[<article>
<blockquote class="messageText SelectQuoteContainer ugc baseHtml">
<a href="https://www.imagebam.com/view/MEMPED2" target="_blank" class="externalLink" rel="nofollow"><img src="https://thumbs4.imagebam.com/cf/3d/95/MEMPED2_t.png" class="bbCodeImage LbImage" alt="[​IMG]" data-url="https://thumbs4.imagebam.com/cf/3d/95/MEMPED2_t.png"></a> <a href="https://www.imagebam.com/view/MEMPED3" target="_blank" class="externalLink" rel="nofollow"><img src="https://thumbs4.imagebam.com/4f/69/60/MEMPED3_t.png" class="bbCodeImage LbImage" alt="[​IMG]" data-url="https://thumbs4.imagebam.com/4f/69/60/MEMPED3_t.png"></a> <a href="https://www.imagebam.com/view/MEMPED5" target="_blank" class="externalLink" rel="nofollow"><img src="https://thumbs4.imagebam.com/5f/3a/66/MEMPED5_t.png" class="bbCodeImage LbImage" alt="[​IMG]" data-url="https://thumbs4.imagebam.com/5f/3a/66/MEMPED5_t.png"></a> <a href="https://www.imagebam.com/view/MEMPED7" target="_blank" class="externalLink" rel="nofollow"><img src="https://thumbs4.imagebam.com/5d/fd/3b/MEMPED7_t.png" class="bbCodeImage LbImage" alt="[​IMG]" data-url="https://thumbs4.imagebam.com/5d/fd/3b/MEMPED7_t.png"></a> <a href="https://www.imagebam.com/view/MEMPED8" target="_blank" class="externalLink" rel="nofollow"><img src="https://thumbs4.imagebam.com/b3/a3/0b/MEMPED8_t.png" class="bbCodeImage LbImage" alt="[​IMG]" data-url="https://thumbs4.imagebam.com/b3/a3/0b/MEMPED8_t.png"></a><br>
<br>
<div class="ToggleTriggerAnchor bbCodeSpoilerContainer">
<button type="button" class="button bbCodeSpoilerButton ToggleTrigger Tooltip JsOnly" data-target="> .SpoilerTarget"><span>Spoiler: <span class="SpoilerTitle">Mediainfo</span></span></button>
<div class="SpoilerTarget bbCodeSpoilerText">General<br>
Complete name : D:\Leona Lewis - I Got You (AAC-WEBDLRip-1080p-X265-CVC).mp4<br>
Format : MPEG-4<br>
Format profile : Base Media<br>
Codec ID : isom (isom/iso2/mp41)<br>
File size : 261 MiB<br>
Duration : 4 min 8 s<br>
Overall bit rate : 8 823 kb/s<br>
Writing application : CVC 20230710<br>
Video<br>
ID : 1<br>
Format : HEVC<br>
Format/Info : High Efficiency Video Coding<br>
Format profile : Main 10@L4@Main<br>
Codec ID : hev1<br>
Codec ID/Info : High Efficiency Video Coding<br>
Duration : 4 min 8 s<br>
Bit rate : 8 686 kb/s<br>
Width : 1 920 pixels<br>
Height : 1 080 pixels<br>
Display aspect ratio : 16:9<br>
Frame rate mode : Constant<br>
Frame rate : 29.970 (30000/1001) FPS<br>
Color space : YUV<br>
Chroma subsampling : 4:2:0<br>
Bit depth : 10 bits<br>
Bits/(Pixel*Frame) : 0.140<br>
Stream size : 257 MiB (98%)<br>
Writing library : x265 3.5+20-17839cc0d:[Windows][GCC 5.4.0][64 bit] 10bit<br>
Encoding settings : cpuid=1111039 / frame-threads=4 / numa-pools=16 / wpp / no-pmode / no-pme / no-psnr / no-ssim / log-level=2 / input-csp=1 / input-res=1920x1080 / interlace=0 / total-frames=0 / level-idc=0 / high-tier=1 / uhd-bd=0 / ref=5 / no-allow-non-conformance / no-repeat-headers / annexb / no-aud / no-eob / no-eos / no-hrd / info / hash=0 / no-temporal-layers / open-gop / min-keyint=25 / keyint=250 / gop-lookahead=0 / bframes=8 / b-adapt=2 / b-pyramid / bframe-bias=0 / rc-lookahead=40 / lookahead-slices=0 / scenecut=40 / no-hist-scenecut / radl=0 / no-splice / no-intra-refresh / ctu=64 / min-cu-size=8 / rect / amp / max-tu-size=32 / tu-inter-depth=3 / tu-intra-depth=3 / limit-tu=0 / rdoq-level=2 / dynamic-rd=0.00 / no-ssim-rd / signhide / no-tskip / nr-intra=0 / nr-inter=0 / no-constrained-intra / strong-intra-smoothing / max-merge=5 / limit-refs=0 / no-limit-modes / me=3 / subme=4 / merange=57 / temporal-mvp / no-frame-dup / no-hme / weightp / weightb / no-analyze-src-pics / deblock=0:0 / sao / no-sao-non-deblock / rd=6 / selective-sao=4 / no-early-skip / rskip / no-fast-intra / no-tskip-fast / no-cu-lossless / b-intra / no-splitrd-skip / rdpenalty=0 / psy-rd=2.00 / psy-rdoq=1.00 / no-rd-refine / no-lossless / cbqpoffs=0 / crqpoffs=0 / rc=crf / crf=18.0 / qcomp=0.60 / qpstep=4 / stats-write=0 / stats-read=0 / ipratio=1.40 / pbratio=1.30 / aq-mode=2 / aq-strength=1.00 / cutree / zone-count=0 / no-strict-cbr / qg-size=32 / no-rc-grain / qpmax=69 / qpmin=0 / no-const-vbv / sar=0 / overscan=0 / videoformat=5 / range=0 / colorprim=2 / transfer=2 / colormatrix=2 / chromaloc=0 / display-window=0 / cll=0,0 / min-luma=0 / max-luma=1023 / log2-max-poc-lsb=8 / vui-timing-info / vui-hrd-info / slices=1 / no-opt-qp-pps / no-opt-ref-list-length-pps / no-multi-pass-opt-rps / scenecut-bias=0.05 / hist-threshold=0.03 / no-opt-cu-delta-qp / no-aq-motion / no-hdr10 / no-hdr10-opt / no-dhdr10-opt / no-idr-recovery-sei / analysis-reuse-level=0 / analysis-save-reuse-level=0 / analysis-load-reuse-level=0 / scale-factor=0 / refine-intra=0 / refine-inter=0 / refine-mv=1 / refine-ctu-distortion=0 / no-limit-sao / ctu-info=0 / no-lowpass-dct / refine-analysis-type=0 / copy-pic=1 / max-ausize-factor=1.0 / no-dynamic-refine / no-single-sei / no-hevc-aq / no-svt / no-field / qp-adaptation-range=1.00 / scenecut-aware-qp=0conformance-window-offsets / right=0 / bottom=0 / decoder-max-rate=0 / no-vbv-live-multi-pass<br>
Color range : Limited<br>
Audio<br>
ID : 2<br>
Format : AAC<br>
Format/Info : Advanced Audio Codec<br>
Format profile : LC<br>
Codec ID : 40<br>
Duration : 4 min 8 s<br>
Source duration : 4 min 8 s<br>
Bit rate mode : Constant<br>
Bit rate : 128 kb/s<br>
Channel(s) : 2 channels<br>
Channel positions : Front: L R<br>
Sampling rate : 48.0 kHz<br>
Frame rate : 46.875 FPS (1024 spf)<br>
Compression mode : Lossy<br>
Stream size : 3.79 MiB (1%)<br>
Source stream size : 3.79 MiB (1%)<br>
Default : Yes<br>
Alternate group : 1</div>
</div><br>
DL:<br>
<div class="bbCodeBlock bbCodeVfcHH HiddenContent">
<div class="attribution type">Hidden Content:</div>
<blockquote>You must reply before you can see the hidden data contained here.</blockquote>
</div>
<div class="messageTextEndMarker">&nbsp;</div>
</blockquote>
</article>]]></description>
                <author><![CDATA[10362227]]></author>
                </item>

                </channel></rss>